<?xml version="1.0" standalone="no"?>
<!DOCTYPE svg PUBLIC "-//W3C//DTD SVG 20010904//EN"
 "http://www.w3.org/TR/2001/REC-SVG-20010904/DTD/svg10.dtd">
<svg version="1.0" xmlns="http://www.w3.org/2000/svg"
 width="400.000000pt" height="400.000000pt" viewBox="0 0 400.000000 400.000000"
 preserveAspectRatio="xMidYMid meet">
<metadata>
Created by potrace 1.14, written by Peter Selinger 2001-2017
</metadata>
<g transform="translate(0.000000,400.000000) scale(0.100000,-0.100000)"
fill="#000000" stroke="none">
<path d="M2010 3425 c-19 -8 -51 -14 -71 -14 -55 -1 -316 -95 -372 -134 -95
-66 -156 -122 -173 -159 -9 -21 -21 -38 -26 -38 -4 0 -8 -8 -8 -18 0 -10 -11
-56 -25 -102 -20 -66 -25 -109 -27 -210 -2 -88 -6 -126 -14 -123 -14 5 -26
-90 -15 -120 8 -20 9 -18 16 16 4 20 11 37 16 37 5 0 4 -12 -2 -27 -5 -15 -7
-50 -3 -79 4 -33 2 -54 -5 -58 -7 -5 -11 2 -11 18 0 14 -4 26 -10 26 -5 0 -7
-13 -3 -30 5 -27 3 -30 -21 -30 -15 0 -25 -4 -22 -9 3 -5 -8 -11 -25 -15 -17
-3 -28 -10 -24 -16 9 -14 -38 -13 -53 2 -7 7 -12 9 -12 5 0 -3 -23 6 -52 20
-29 14 -64 27 -79 27 -15 1 -25 4 -22 9 8 13 37 7 111 -23 61 -25 76 -28 92
-17 11 6 20 14 20 17 0 14 -48 33 -89 35 -25 1 -60 5 -78 9 -34 8 -62 -3 -97
-36 -21 -19 -21 -19 24 -14 37 5 40 4 15 -3 -51 -15 -134 -19 -138 -6 -3 7 5
10 23 7 22 -3 37 4 67 32 l38 35 -28 1 c-16 0 -26 4 -23 9 8 13 -123 114 -137
107 -7 -3 -22 -13 -35 -22 -21 -16 -22 -15 -22 4 0 21 -43 43 -77 38 -10 -2
-13 -1 -7 1 12 4 7 43 -5 43 -13 -1 -46 -31 -46 -42 0 -20 -56 -29 -79 -13
-20 15 -20 15 7 15 15 0 27 4 27 8 0 16 -42 47 -64 47 -11 0 -20 6 -19 13 2 7
-8 12 -25 12 l-27 -1 24 -20 c28 -23 25 -29 -15 -32 -23 -2 -29 2 -30 19 -2
30 -13 45 -32 42 -10 -2 -16 3 -14 11 3 12 0 12 -12 2 -9 -8 -24 -10 -38 -5
-21 7 -19 8 16 16 27 6 42 5 46 -3 5 -7 9 -5 14 6 5 14 9 15 21 5 10 -9 23 -9
43 -2 16 5 42 8 58 5 l29 -4 -25 16 c-24 15 -24 16 20 9 25 -3 51 -11 58 -16
8 -7 12 -7 12 0 0 6 -4 14 -10 17 -5 3 -10 26 -10 50 0 44 -10 55 -49 55 -17
0 -66 -84 -57 -98 2 -4 -15 -8 -39 -8 -26 -1 -46 3 -48 11 -4 8 3 10 20 7 36
-7 26 17 -16 40 -38 21 -70 16 -72 -13 -1 -10 -2 -25 -3 -31 0 -8 -15 -13 -36
-13 -27 0 -36 5 -39 20 -4 25 -21 36 -42 30 -10 -4 -20 4 -27 21 -17 36 -56
30 -60 -9 -3 -23 -6 -26 -18 -16 -8 6 -14 18 -14 26 0 12 -3 12 -16 -1 -8 -9
-20 -16 -25 -16 -5 0 -9 -25 -9 -55 0 -36 4 -55 12 -55 9 0 9 -3 0 -12 -7 -7
-12 -23 -12 -35 0 -22 3 -23 36 -17 27 5 35 4 30 -5 -4 -6 -20 -11 -37 -11
-29 0 -40 -14 -16 -23 10 -4 10 -6 0 -6 -9 -1 -13 -26 -13 -88 l0 -88 63 3
c35 2 104 -1 154 -7 76 -8 101 -7 147 6 31 9 56 20 56 24 0 5 -4 9 -10 9 -5 0
-10 7 -10 15 0 8 -4 15 -9 15 -16 0 -23 52 -9 61 18 12 108 11 108 -1 0 -5 0
-12 0 -15 0 -3 7 -19 16 -36 15 -29 19 -31 60 -26 48 5 51 3 30 -19 -9 -9 -30
-12 -62 -10 -31 2 -53 -1 -62 -10 -7 -8 -22 -14 -32 -14 -10 0 -20 -7 -23 -14
-7 -19 22 -29 56 -21 30 8 70 -3 62 -16 -4 -5 -14 -5 -26 2 -39 20 -29 2 13
-27 34 -22 53 -28 88 -26 l45 2 -40 -19 c-27 -12 -47 -16 -62 -10 -13 5 -30 6
-40 2 -9 -4 -14 -2 -11 3 4 5 -40 9 -105 9 -62 0 -177 3 -257 6 -91 4 -134 3
-115 -2 17 -5 86 -12 155 -15 285 -12 540 -62 540 -104 0 -6 6 -9 13 -8 7 2
12 -8 11 -25 0 -22 3 -26 18 -21 13 4 11 -2 -9 -23 -16 -16 -30 -28 -32 -26
-2 1 -14 -6 -28 -17 -23 -18 -24 -18 -72 3 -36 16 -45 24 -32 29 10 4 11 7 3
7 -7 1 -10 6 -7 11 8 13 -7 18 -72 24 -40 4 -51 2 -47 -8 6 -17 71 -39 86 -30
7 4 10 4 6 -1 -5 -5 9 -19 30 -33 46 -30 116 -97 145 -137 16 -22 22 -45 22
-87 0 -49 4 -59 28 -78 26 -21 35 -40 19 -40 -14 0 -80 68 -87 89 -3 11 -17
26 -30 35 -14 9 -25 25 -25 36 0 14 -5 18 -16 13 -10 -4 -22 0 -28 9 -6 8 -48
23 -93 33 -74 17 -83 21 -83 42 0 24 -34 43 -99 56 -19 4 -39 14 -45 22 -12
16 -177 22 -253 10 l-43 -8 0 -102 0 -103 83 -7 c362 -30 534 -93 727 -265 35
-31 42 -42 31 -49 -8 -5 -16 -26 -18 -47 -2 -20 -9 -46 -16 -58 -6 -12 -13
-82 -15 -168 -4 -135 -3 -148 13 -148 14 0 15 -3 5 -15 -10 -12 -10 -15 0 -15
10 0 10 -3 1 -14 -10 -11 -9 -14 3 -12 23 3 32 16 18 25 -14 9 0 59 21 74 8 6
6 7 -5 3 -19 -6 -25 9 -8 19 7 4 7 12 0 25 -5 10 -7 25 -4 33 3 8 -2 21 -10
30 -21 21 -20 40 4 62 11 10 20 24 20 31 0 24 36 34 106 28 45 -4 64 -2 55 4
-7 5 -21 7 -31 5 -10 -3 -21 0 -24 6 -5 7 -1 8 9 4 10 -3 21 0 26 8 8 12 11
12 19 -1 7 -11 10 -11 10 -2 0 13 -6 16 -53 26 -47 11 -29 26 31 26 64 0 129
15 149 35 16 17 17 25 2 25 -15 0 -89 76 -89 91 0 6 9 9 20 6 11 -3 20 -1 20
4 0 5 8 9 18 9 21 0 -33 31 -63 36 -11 2 -47 13 -79 24 -38 14 -71 19 -91 16
-26 -5 -34 -2 -54 24 l-22 31 24 -6 c15 -4 28 -2 33 6 5 9 2 10 -10 6 -14 -5
-17 -3 -12 8 3 8 0 15 -7 15 -48 2 76 31 192 46 40 5 37 3 45 31 6 20 0 28
-43 54 -28 18 -51 35 -51 39 0 12 33 17 60 9 18 -5 20 -7 6 -8 -15 -1 -16 -4
-6 -16 19 -22 39 -18 46 10 6 25 8 25 98 40 33 5 46 19 46 53 0 14 6 22 18 22
10 0 22 4 28 8 5 4 26 14 47 21 48 16 58 8 88 -70 12 -34 44 -98 71 -142 26
-44 52 -97 57 -116 24 -95 25 -88 -24 -110 -25 -11 -74 -25 -108 -32 -84 -15
-118 -31 -178 -81 -43 -36 -109 -117 -109 -134 0 -3 -16 -40 -36 -82 -53 -111
-70 -161 -123 -362 -34 -129 -40 -194 -22 -228 8 -14 10 -36 5 -55 -4 -18 -6
-45 -6 -62 1 -16 -8 -59 -20 -95 -23 -71 -24 -90 -13 -294 7 -129 7 -140 -10
-153 -23 -16 -43 -17 -27 -1 18 18 15 28 -8 28 -11 0 -20 -6 -20 -13 0 -17
-65 -10 -81 9 -6 8 -8 14 -3 14 4 0 -1 6 -11 14 -16 11 -17 17 -7 29 9 10 9
22 3 38 l-10 24 0 -23 c-1 -13 -5 -20 -11 -17 -6 3 -7 -1 -4 -9 7 -18 -4 -20
-25 -7 -7 5 -11 13 -7 19 3 6 0 14 -7 19 -8 4 -19 17 -25 28 -8 14 -11 16 -12
5 0 -8 -10 -21 -21 -28 -18 -12 -24 -11 -37 2 -15 15 -15 16 4 16 25 0 44 18
44 43 0 13 -5 17 -16 13 -9 -3 -25 -6 -35 -6 -11 0 -17 -4 -14 -10 4 -6 -6
-10 -22 -10 l-28 -1 25 -14 c25 -14 24 -14 -19 -15 -34 0 -42 3 -38 15 4 8 2
17 -3 20 -5 3 -10 -5 -12 -17 -2 -15 -11 -24 -25 -26 -13 -2 -24 -8 -24 -13
-1 -5 -2 -15 -3 -21 -1 -7 -9 -12 -19 -10 -9 2 -20 -4 -23 -13 -3 -8 -10 -15
-15 -15 -4 0 -6 7 -3 15 4 11 0 15 -16 15 -17 0 -21 -4 -17 -20 6 -24 -11 -27
-27 -4 -14 18 -43 10 -48 -14 -2 -10 -13 -17 -28 -17 -22 0 -25 -4 -22 -32 4
-36 -12 -45 -21 -12 -5 18 -10 20 -39 14 -42 -9 -48 -13 -48 -31 0 -9 -5 -12
-11 -8 -7 4 -10 1 -7 -7 4 -12 260 -14 1674 -17 l1670 -2 14 52 c54 216 259
366 486 356 l84 -3 0 54 c0 61 -21 97 -94 163 -23 21 -45 43 -51 50 -35 41
-147 148 -155 148 -6 0 -10 6 -10 13 0 12 -43 57 -54 57 -3 0 -19 14 -38 31
-56 52 -64 59 -72 59 -11 0 -77 51 -121 93 -22 22 -69 60 -105 85 -36 26 -68
52 -73 58 -7 12 -81 61 -137 92 -31 17 -205 62 -240 62 -20 0 -30 10 -49 46
-32 60 -102 120 -165 142 -36 12 -67 33 -106 74 -79 81 -144 156 -152 176 -14
36 -7 99 17 150 13 29 34 82 45 119 11 36 34 84 50 106 32 43 39 63 18 51 -8
-5 -7 0 2 11 12 15 12 17 1 10 -11 -6 -13 -4 -8 9 4 10 7 21 7 24 0 4 5 0 11
-8 9 -12 10 -11 6 8 -3 13 1 25 9 30 8 4 18 28 23 52 6 25 17 71 25 104 14 55
14 58 -3 63 -17 4 -18 14 -14 91 2 48 12 121 23 162 12 48 18 100 16 145 -5
116 -12 132 -95 207 -33 29 -65 66 -72 80 -13 30 -56 60 -134 97 -75 35 -80
38 -77 50 1 6 -1 10 -5 10 -24 -4 -44 3 -42 14 1 6 1 20 0 31 -1 15 -4 16 -16
6 -14 -11 -48 -10 -100 3 -11 3 -36 -1 -55 -8z m-30 -75 c0 -5 -5 -10 -11 -10
-5 0 -7 5 -4 10 3 6 8 10 11 10 2 0 4 -4 4 -10z m-146 -45 c23 -26 86 -46 86
-26 0 6 9 11 21 11 11 0 17 5 14 10 -10 16 71 12 85 -5 8 -9 22 -12 41 -8 17
3 29 1 29 -5 0 -15 98 -34 118 -23 13 7 27 1 61 -26 150 -123 183 -208 207
-528 3 -49 2 -66 -5 -55 -9 13 -11 13 -11 -1 0 -9 3 -19 7 -23 13 -12 14 -136
1 -136 -7 0 -9 21 -6 60 2 33 1 60 -3 60 -4 0 -10 12 -14 27 -8 34 -21 43 -60
43 -23 0 -27 3 -15 10 13 9 13 10 0 10 -9 0 -21 -5 -28 -12 -9 -9 -21 -8 -52
2 -22 7 -40 16 -40 19 0 4 -25 6 -55 6 -30 -1 -55 2 -55 5 0 8 70 30 94 30 10
0 16 9 16 25 0 27 -1 27 -104 27 -33 0 -44 3 -35 9 8 5 10 9 4 9 -5 -1 -19 -7
-29 -15 -19 -15 -19 -15 2 -38 12 -13 22 -28 22 -34 0 -6 6 -14 13 -16 6 -3
-3 -6 -21 -6 -20 -1 -31 3 -27 9 3 6 -1 17 -9 26 -15 14 -16 13 -16 -7 0 -18
-3 -19 -14 -9 -8 6 -37 12 -64 13 -27 1 -56 8 -65 15 -10 8 -28 11 -44 8 -15
-3 -50 -6 -78 -8 -27 -1 -58 -7 -69 -12 -12 -7 -20 -8 -22 -1 -2 6 -36 9 -77
8 -57 -1 -83 -7 -122 -27 -28 -15 -54 -32 -60 -39 -5 -7 -18 -16 -27 -20 -10
-3 -18 -13 -18 -22 0 -8 -3 -15 -7 -15 -12 0 -6 -101 7 -126 9 -16 25 -23 62
-28 28 -4 71 -14 97 -23 25 -8 79 -21 120 -28 88 -16 113 -6 137 56 30 73 107
75 133 3 19 -55 59 -96 82 -84 9 6 38 7 64 3 25 -3 93 0 151 7 94 12 106 11
122 -4 10 -9 22 -13 25 -9 7 6 11 -23 9 -57 0 -8 3 -17 8 -20 11 -7 22 -100
12 -100 -4 0 -14 5 -22 10 -13 8 -13 10 -1 10 12 0 12 3 3 12 -9 9 -17 7 -33
-11 -19 -20 -27 -22 -68 -16 -25 4 -54 11 -63 16 -9 5 -30 9 -45 9 -21 0 -41
12 -73 46 -49 49 -95 78 -110 69 -14 -9 -12 -37 5 -59 8 -11 15 -32 15 -46 0
-22 -6 -28 -46 -38 -27 -7 -51 -9 -58 -4 -23 18 -45 22 -39 7 3 -8 -2 -18 -11
-21 -9 -3 -13 -10 -10 -15 10 -16 -53 -9 -67 8 -8 9 -29 22 -48 30 -31 13 -33
17 -27 51 3 20 10 38 16 40 16 6 12 42 -5 42 -18 0 -86 -31 -103 -47 -7 -7
-47 -29 -87 -48 -61 -29 -78 -34 -95 -25 -11 6 -20 16 -20 23 0 7 -7 4 -14 -6
-9 -12 -16 -14 -21 -7 -3 5 -11 8 -16 5 -5 -4 -10 0 -10 7 -1 7 -3 22 -5 33
-21 134 -22 181 -6 363 25 283 112 452 317 608 39 30 98 61 119 63 5 1 18 -10
30 -24z m-1687 -596 c15 -6 46 -14 68 -19 39 -8 38 -8 -20 -9 -33 0 -78 2
-100 6 l-40 6 30 13 c17 7 31 13 32 14 1 0 14 -5 30 -11z m-13 -64 c23 -17 9
-19 -29 -5 -17 7 -24 7 -20 0 3 -6 1 -10 -4 -10 -6 0 -11 7 -11 15 0 19 39 19
64 0z m196 -14 c25 -7 25 -7 3 -13 -13 -3 -23 -2 -23 2 0 5 -8 11 -17 13 -12
3 -13 5 -3 5 8 0 26 -3 40 -7z m-217 -28 c-7 -2 -19 -2 -25 0 -7 3 -2 5 12 5
14 0 19 -2 13 -5z m190 -23 c-3 -11 -12 -20 -21 -20 -13 0 -12 3 3 20 10 11
19 20 21 20 1 0 0 -9 -3 -20z m-173 -25 c-14 -8 -34 -14 -45 -14 -15 0 -13 3
10 14 40 18 67 18 35 0z m130 -30 c10 -12 10 -15 -4 -15 -9 0 -16 7 -16 15 0
8 2 15 4 15 2 0 9 -7 16 -15z m290 5 c0 -5 -2 -10 -4 -10 -3 0 -8 5 -11 10 -3
6 -1 10 4 10 6 0 11 -4 11 -10z m-236 -15 c3 3 2 0 -3 -6 -10 -12 -31 -4 -31
13 0 7 4 7 13 -1 8 -6 17 -9 21 -6z m276 5 c0 -6 12 -16 26 -22 22 -10 23 -13
8 -18 -19 -7 -67 27 -58 42 7 11 24 10 24 -2z m-272 -46 c71 -11 19 -37 -57
-28 -76 9 -91 14 -91 30 0 15 38 15 148 -2z m438 -41 c-7 -7 -36 22 -36 36 0
6 9 2 21 -10 11 -11 18 -23 15 -26z m1801 5 c-3 -7 -5 -2 -5 12 0 14 2 19 5
13 2 -7 2 -19 0 -25z m-1703 -6 c2 -4 -13 -6 -35 -4 -21 2 -39 6 -39 8 0 7 69
4 74 -4z m217 -108 c55 -16 60 -16 140 4 85 21 119 24 119 12 0 -4 -33 -13
-72 -20 -40 -7 -84 -17 -98 -22 -23 -9 -24 -10 -8 -22 22 -16 50 -93 38 -101
-5 -3 -13 3 -19 12 -10 17 -10 17 -11 0 0 -10 -4 -15 -10 -12 -5 3 -10 2 -10
-3 0 -6 -9 -8 -20 -5 -11 3 -20 1 -20 -4 0 -5 -13 -8 -30 -5 -16 2 -28 7 -26
11 2 3 -11 6 -29 7 -19 0 -32 -3 -30 -7 3 -4 -12 -6 -33 -5 -37 3 -148 56
-141 68 7 13 -36 37 -57 32 -12 -3 -25 -1 -28 4 -3 6 18 13 50 17 44 5 63 3
93 -12 33 -17 50 -18 122 -11 99 9 129 15 129 27 0 5 -15 12 -32 15 -18 4 -51
15 -73 26 -44 22 -29 20 56 -6z m269 -44 c0 -5 -2 -10 -4 -10 -3 0 -8 5 -11
10 -3 6 -1 10 4 10 6 0 11 -4 11 -10z m-300 -234 c0 -3 -4 -8 -10 -11 -5 -3
-10 -1 -10 4 0 6 5 11 10 11 6 0 10 -2 10 -4z m738 -34 c2 -7 -2 -10 -12 -6
-9 3 -16 11 -16 16 0 13 23 5 28 -10z m106 -7 c27 -5 35 -10 28 -17 -6 -6 -18
-7 -29 -3 -10 5 -31 9 -47 9 -16 1 -31 6 -33 12 -4 11 2 11 81 -1z m-1114 -19
c0 -3 -4 -8 -10 -11 -5 -3 -10 -1 -10 4 0 6 5 11 10 11 6 0 10 -2 10 -4z m917
-166 c9 -23 17 -30 40 -30 31 -1 71 -26 58 -37 -4 -5 -10 -2 -12 4 -4 10 -9
10 -24 0 -30 -21 -72 -10 -92 25 -13 23 -15 34 -6 44 9 11 9 14 0 14 -7 0 -10
4 -6 10 10 16 30 1 42 -30z m360 -32 c-1 -13 -9 -28 -17 -35 -18 -15 -100 -17
-100 -3 0 6 4 10 10 10 5 0 26 11 46 25 46 31 65 32 61 3z m-943 -329 c-27
-11 -34 -10 -34 0 0 11 31 20 44 13 5 -3 1 -9 -10 -13z m550 -337 c-4 -45 -5
-48 -14 -27 l-9 20 0 -20 c-1 -17 -3 -17 -11 -5 -8 12 -10 12 -10 1 0 -8 -2
-12 -5 -9 -10 9 7 38 18 31 6 -4 8 0 4 9 -4 11 0 15 11 14 9 -2 17 -8 16 -14z
m-70 -8 c3 -8 2 -12 -4 -9 -6 3 -10 10 -10 16 0 14 7 11 14 -7z m26 -53 c0 12
2 12 10 -1 9 -13 10 -13 10 0 1 11 3 11 11 -3 6 -10 8 -21 5 -24 -3 -4 -6 0
-6 8 0 11 -2 11 -10 -1 -9 -13 -10 -13 -10 0 0 13 -1 13 -10 0 -9 -13 -10 -13
-10 0 0 13 -2 13 -9 1 -7 -10 -9 -6 -8 13 2 24 3 25 15 9 9 -13 12 -14 12 -2z
m-6 -117 c3 -8 2 -12 -4 -9 -6 3 -10 10 -10 16 0 14 7 11 14 -7z m-10 -39 c-4
-8 -11 -12 -17 -8 -8 5 -7 8 1 11 7 2 9 9 6 14 -4 7 -2 8 4 4 6 -4 9 -13 6
-21z m-53 -42 c-12 -20 -14 -14 -5 12 4 9 9 14 11 11 3 -2 0 -13 -6 -23z m-34
-155 c-3 -7 -5 -2 -5 12 0 14 2 19 5 13 2 -7 2 -19 0 -25z m-20 -90 c-3 -8 -6
-5 -6 6 -1 11 2 17 5 13 3 -3 4 -12 1 -19z m-972 -447 c-6 -4 -26 -11 -45 -14
-35 -6 -35 -6 -10 8 27 16 70 21 55 6z m145 -1 c0 -5 -7 -10 -16 -10 -8 0 -12
5 -9 10 3 6 10 10 16 10 5 0 9 -4 9 -10z m-240 -65 c0 -8 -4 -15 -10 -15 -5 0
-7 -8 -4 -17 5 -16 4 -16 -6 -3 -9 11 -13 12 -17 3 -7 -19 -44 -17 -37 2 4 8
17 15 30 15 15 0 24 6 24 15 0 8 5 15 10 15 6 0 10 -7 10 -15z m160 -35 c0 -5
-4 -10 -10 -10 -5 0 -10 5 -10 10 0 6 5 10 10 10 6 0 10 -4 10 -10z"/>
<path d="M2125 2976 l-26 -25 45 -6 c31 -5 51 -3 61 5 8 7 22 10 30 6 10 -3
13 -2 10 5 -4 6 -17 14 -28 18 -59 22 -65 22 -92 -3z"/>
<path d="M1590 2840 c0 -5 5 -10 10 -10 6 0 10 5 10 10 0 6 -4 10 -10 10 -5 0
-10 -4 -10 -10z"/>
<path d="M1640 2816 c0 -15 20 -26 53 -27 21 0 21 -1 2 -9 -18 -8 -17 -9 8 -9
18 -1 27 4 27 15 0 11 5 14 18 9 10 -4 13 -3 7 3 -17 16 -73 22 -79 9 -2 -7
-5 -4 -5 6 -1 20 -31 24 -31 3z"/>
<path d="M2320 2816 c0 -8 -6 -17 -12 -19 -8 -4 -7 -6 3 -6 24 -1 44 25 24 33
-9 3 -15 0 -15 -8z"/>
<path d="M1050 2220 c-20 -6 -21 -8 -5 -8 11 0 29 3 40 8 25 11 -1 11 -35 0z"/>
<path d="M998 2203 c7 -3 16 -2 19 1 4 3 -2 6 -13 5 -11 0 -14 -3 -6 -6z"/>
<path d="M807 2793 c-12 -11 -7 -33 7 -33 8 0 17 -12 20 -26 6 -21 9 -24 22
-13 8 6 12 14 9 17 -3 3 0 11 5 17 17 20 0 45 -29 45 -15 0 -31 -3 -34 -7z"/>
<path d="M669 2771 c7 -5 10 -14 7 -20 -10 -15 3 -14 19 3 17 16 9 26 -19 26
-16 0 -18 -2 -7 -9z"/>
<path d="M636 2705 c-11 -8 -17 -17 -14 -21 4 -3 16 4 27 15 24 24 15 28 -13
6z"/>
<path d="M715 2701 c-3 -5 -2 -12 3 -15 5 -3 9 1 9 9 0 17 -3 19 -12 6z"/>
<path d="M560 2668 l-25 -11 23 -5 c30 -5 55 5 47 18 -8 12 -13 12 -45 -2z"/>
<path d="M646 2624 c-4 -9 -4 -19 -2 -21 8 -8 26 8 26 23 0 19 -16 18 -24 -2z"/>
<path d="M470 2191 c0 -5 15 -11 33 -13 17 -3 40 -8 50 -13 12 -5 17 -3 17 9
0 9 -8 16 -17 17 -10 0 -33 2 -50 5 -18 2 -33 0 -33 -5z"/>
<path d="M0 2140 c0 -5 7 -10 16 -10 8 0 12 5 9 10 -3 6 -10 10 -16 10 -5 0
-9 -4 -9 -10z"/>
<path d="M248 2123 c7 -3 16 -2 19 1 4 3 -2 6 -13 5 -11 0 -14 -3 -6 -6z"/>
<path d="M93 2113 c9 -2 23 -2 30 0 6 3 -1 5 -18 5 -16 0 -22 -2 -12 -5z"/>
<path d="M7 2103 c7 -2 19 -2 26 0 6 3 1 5 -13 5 -14 0 -19 -2 -13 -5z"/>
<path d="M368 2103 c6 -2 18 -2 25 0 6 3 1 5 -13 5 -14 0 -19 -2 -12 -5z"/>
<path d="M425 2080 c3 -5 10 -10 16 -10 5 0 9 5 9 10 0 6 -7 10 -16 10 -8 0
-12 -4 -9 -10z"/>
<path d="M1255 2020 c-3 -6 1 -7 9 -4 18 7 21 14 7 14 -6 0 -13 -4 -16 -10z"/>
<path d="M13 1705 c-10 -11 -13 -94 -12 -347 l0 -333 127 -62 c70 -35 132 -63
139 -63 6 0 13 -3 15 -7 2 -5 28 -5 58 -2 30 3 47 6 37 7 -10 1 -15 7 -12 12
9 15 78 12 118 -5 46 -19 138 -19 197 -1 25 8 39 15 31 15 -8 1 -12 3 -10 5 3
3 24 0 48 -6 35 -9 45 -8 52 3 6 10 9 10 9 2 0 -7 8 -13 18 -13 16 1 16 1 -1
14 -10 8 -28 12 -40 10 -12 -2 -16 -2 -9 2 14 7 16 40 3 48 -5 3 -12 32 -15
63 -12 100 -18 123 -32 123 -7 0 -18 8 -23 18 -7 13 -3 24 14 44 15 18 25 23
28 15 3 -7 6 -2 6 11 1 15 -5 22 -18 22 -15 0 -18 -5 -13 -22 4 -18 -1 -15
-30 15 -35 36 -37 36 -65 22 -25 -13 -29 -13 -40 2 -7 9 -13 24 -13 33 0 28
-13 32 -31 9 -16 -22 -19 -22 -57 -10 -38 13 -40 16 -35 43 4 21 1 33 -13 44
-14 11 -15 17 -6 20 6 3 12 12 12 20 0 8 7 14 15 14 8 0 15 5 15 10 0 6 9 10
19 10 27 0 34 15 16 30 -13 11 -18 10 -30 -6 -12 -15 -16 -16 -24 -5 -6 10
-13 10 -29 2 -51 -27 -79 3 -41 43 23 24 23 24 56 5 l33 -19 0 27 c0 14 -3 24
-6 20 -10 -9 -47 30 -39 42 3 6 0 11 -7 12 -7 1 -2 5 12 9 l25 8 -25 2 c-49 3
-65 9 -79 29 -7 12 -20 21 -27 21 -20 0 -17 -10 7 -31 l22 -19 -32 -6 c-35 -7
-39 -20 -13 -41 9 -8 11 -11 3 -7 -9 5 -12 3 -7 -4 4 -7 17 -12 29 -12 12 0
28 -4 35 -8 18 -12 -106 -34 -128 -22 -11 6 -25 3 -44 -9 -27 -18 -72 -19
-163 -5 -29 4 -33 9 -33 34 0 27 3 30 30 30 30 0 40 13 19 25 -7 5 -5 11 4 18
8 7 22 24 32 40 l17 27 -43 0 c-25 -1 -49 -7 -56 -15z m385 -73 c2 -7 -3 -12
-12 -12 -9 0 -16 7 -16 16 0 17 22 14 28 -4z m-88 -132 c0 -5 -2 -10 -4 -10
-3 0 -8 5 -11 10 -3 6 -1 10 4 10 6 0 11 -4 11 -10z m-60 -26 c0 -17 -22 -14
-28 4 -2 7 3 12 12 12 9 0 16 -7 16 -16z"/>
<path d="M968 1688 c7 -7 16 -7 28 0 14 8 13 10 -10 10 -18 0 -24 -4 -18 -10z"/>
<path d="M1046 1665 c4 -8 10 -15 15 -15 5 0 9 7 9 15 0 8 -7 15 -15 15 -9 0
-12 -6 -9 -15z"/>
<path d="M512 1629 c15 -11 25 -25 22 -32 -4 -12 53 -43 63 -34 8 9 -7 27 -24
27 -9 0 -13 6 -9 15 3 9 0 15 -8 15 -7 0 -19 7 -26 15 -7 8 -20 15 -29 15 -11
-1 -8 -6 11 -21z"/>
<path d="M1135 1640 c3 -5 8 -10 11 -10 2 0 4 5 4 10 0 6 -5 10 -11 10 -5 0
-7 -4 -4 -10z"/>
<path d="M440 1620 c0 -5 5 -10 10 -10 6 0 10 5 10 10 0 6 -4 10 -10 10 -5 0
-10 -4 -10 -10z"/>
<path d="M627 1543 c-15 -3 -25 -9 -22 -14 4 -5 1 -9 -4 -9 -6 0 -11 -4 -11
-10 0 -15 21 -12 42 7 18 16 18 16 12 -2 -6 -15 -4 -17 15 -12 12 3 35 1 52
-3 22 -7 29 -6 26 3 -3 7 -10 11 -17 9 -11 -3 -11 0 0 12 11 14 9 16 -11 15
-13 -1 -31 0 -39 3 -8 3 -27 3 -43 1z"/>
<path d="M667 1460 c-4 -16 -14 -20 -46 -20 -23 0 -41 -2 -41 -4 0 -2 -3 -11
-6 -20 -4 -10 -1 -16 9 -16 8 0 17 -6 20 -12 2 -8 8 -9 13 -4 5 5 4 11 -3 13
-15 5 -17 33 -3 33 6 0 10 -5 10 -11 0 -6 6 -16 13 -23 6 -7 27 -32 46 -54 41
-50 55 -42 59 34 2 37 -2 61 -12 76 -9 12 -16 17 -16 10 0 -6 -4 -12 -10 -12
-5 0 -10 7 -10 15 0 22 -17 18 -23 -5z m18 -50 c3 -5 1 -10 -4 -10 -6 0 -11 5
-11 10 0 6 2 10 4 10 3 0 8 -4 11 -10z"/>
<path d="M600 1460 c0 -5 11 -10 25 -10 14 0 25 5 25 10 0 6 -11 10 -25 10
-14 0 -25 -4 -25 -10z"/>
<path d="M488 1383 c7 -3 16 -2 19 1 4 3 -2 6 -13 5 -11 0 -14 -3 -6 -6z"/>
<path d="M800 1000 c0 -5 5 -10 11 -10 5 0 7 5 4 10 -3 6 -8 10 -11 10 -2 0
-4 -4 -4 -10z"/>
<path d="M0 955 c0 -14 5 -25 12 -25 9 0 9 -3 0 -12 -20 -20 -14 -38 12 -38
17 0 29 9 40 31 l15 31 -26 -6 c-21 -6 -24 -4 -19 10 4 10 1 21 -6 26 -21 13
-28 9 -28 -17z"/>
<path d="M385 819 c-4 -6 2 -13 13 -16 11 -2 22 -14 25 -24 5 -19 7 -18 31 6
33 32 33 39 1 31 -14 -4 -34 -2 -45 4 -13 7 -21 7 -25 -1z"/>
<path d="M768 808 c-16 -5 -28 -13 -28 -18 0 -7 54 14 69 27 8 6 -13 2 -41 -9z"/>
<path d="M505 774 c-16 -13 -24 -24 -17 -24 6 0 12 -12 12 -27 0 -26 -1 -26
-14 -7 -20 27 -28 13 -15 -26 l12 -33 17 23 c21 28 36 11 19 -22 -9 -19 -9
-21 2 -10 7 6 25 12 40 12 15 0 33 8 40 18 11 14 11 15 -1 5 -17 -16 -60 -17
-60 -2 0 6 6 9 14 6 9 -4 16 3 20 16 4 15 9 18 14 10 5 -9 18 -7 47 7 l40 18
-32 1 c-17 1 -33 -5 -36 -11 -4 -12 -61 39 -69 61 -2 5 -16 -1 -33 -15z m39
-35 c-8 -14 -31 -11 -37 5 -4 11 -1 13 10 9 12 -5 14 -3 8 8 -8 12 -6 12 8 0
9 -7 14 -17 11 -22z"/>
<path d="M410 742 c0 -7 4 -12 9 -12 4 0 13 -15 19 -32 11 -33 12 -33 6 -3 -5
31 -34 70 -34 47z"/>
<path d="M888 673 c7 -3 16 -2 19 1 4 3 -2 6 -13 5 -11 0 -14 -3 -6 -6z"/>
<path d="M546 625 c4 -8 7 -15 9 -15 2 0 5 7 9 15 3 9 0 15 -9 15 -9 0 -12 -6
-9 -15z"/>
<path d="M776 187 c-13 -9 -17 -20 -12 -32 6 -17 8 -17 22 -3 9 9 14 23 12 32
-3 15 -5 15 -22 3z"/>
<path d="M795 110 c3 -5 8 -10 11 -10 2 0 4 5 4 10 0 6 -5 10 -11 10 -5 0 -7
-4 -4 -10z"/>
</g>
</svg>
